#!OML:ASF F:\VICON\USERDATA\INSTALL\rory3\rory3.ASF
:FULLY-SPECIFIED
:DEGREES
36
root 0.25212872842884637 18.611902833601476 9.08852194848074 5.292909726159314 -4.445951551518931 2.0991976907526833
lfemur 9.742518931423586 -4.420929967690299 -29.0371789115868
ltibia 52.126330521687834
lfoot 12.167721723144666 -15.13150494063672
ltoes -5.269736485777615
rfemur -33.10766744464223 1.475996307208279 23.399786998358294
rtibia 30.9503103450638
rfoot -3.6433732632640505 -2.6559252673214293
rtoes -2.7571363310275903
lowerback 11.44652551522515 -1.4566444655534734 -2.647553621697946
upperback -1.4327839232998167 -2.3896253233737035 1.6748667805735813
thorax -7.956533140879815 -0.7063553892925282 3.379062506373425
lowerneck -19.988742444161893 -2.801429191733657 -2.0238899081923774
upperneck 10.757891764394017 -4.0688075253744405 2.8902228242971346
head 6.857980079928747 -1.7996530927173007 0.8378897829411468
lclavicle 4.287488207729442e-15 5.758861652777991e-17
lhumerus -36.694270242913305 -17.196663181905677 96.53466880496205
lradius 116.10937672482306
lwrist 28.50337504808184
lhand -29.934914555993267 3.7584902146277317
lfingers 7.125019999999998
lthumb -3.1579776577604233 33.635624555742474
rclavicle 4.287527000446066e-15 5.761646218524467e-17
rhumerus -56.49872450928253 11.468471825404345 -98.34545930233689
rradius 104.49410485037362
rwrist -9.489218719596852
rhand -20.387633755920927 36.446499131961716
rfingers 7.125019999999998
rthumb 6.1447759879942305 6.384134564236728
37
root 0.2621024234220768 18.544140833538428 10.089106256030707 4.859704126940643 -4.584684821614964 1.6193371026615329
lfemur 7.820509472523796 -3.049542519251526 -27.314252459982896
ltibia 61.13226442975568
lfoot 11.85113846282414 -14.61297965329912
ltoes -2.0361063080822746
rfemur -32.209278312935744 1.2765219380781294 23.489772365350486
rtibia 30.38245471302249
rfoot -3.9361319049551335 -2.9791066129269734
rtoes -1.8874411007410294
lowerback 11.68335172515609 -1.3427930800297663 -2.4939816531582553
upperback -1.0284833305360601 -2.093986378428692 1.648364426860791
thorax -7.865824834443672 -0.5915405390225764 3.279639813785437
lowerneck -20.079947585112656 -2.816659745170907 -1.9449757536411512
upperneck 10.34033699261591 -4.180374984137698 2.8196278170945828
head 6.767369560866973 -1.822250711898207 0.8367406164588129
lclavicle 4.287488207729698e-15 5.758861652796329e-17
lhumerus -36.41669998467613 -17.140435284293467 96.54507480318745
lradius 115.91634259179982
lwrist 28.355337766367743
lhand -29.755319308117503 3.7922544231704705
lfingers 7.125019999999998
lthumb -2.9866461111009954 33.51161658763629
rclavicle 4.287527000464063e-15 5.761646219816261e-17
rhumerus -56.390328822562566 10.948574450463864 -97.89898893540762
rradius 104.16652430978768
rwrist -9.412223805821323
rhand -20.548344994513048 36.28548880157778
rfingers 7.125019999999998
rthumb 6.056264294163844 6.34706566403465
38
root 0.291653918134561 18.42023838772279 11.52531021463566 4.050701741591089 -5.135774532487215 1.3121545930426177
lfemur 3.859737815369968 -2.014162940894376 -26.384357500894367
ltibia 68.95586596434484
lfoot 9.889385583428862 -14.41014822178117
ltoes -0.9757909772302344
rfemur -30.490719859580132 1.3195416494751866 24.276292249764573
rtibia 31.525689412943805
rfoot -3.830626020282664 -3.5390628059221356
rtoes -0.761202445216598
lowerback 12.110994971858421 -1.1363141693964982 -2.2097722885923616
upperback -0.6739893821315237 -1.6299484532124127 1.624422962128326
thorax -7.8507901373548155 -0.4084559802907285 3.1242518309392397
lowerneck -20.150014749691007 -2.832250855411516 -1.886676520134677
upperneck 10.15185021426792 -4.255403443006345 2.747007366354687
head 6.638827569128977 -1.8512804953657331 0.8301455823149729
lclavicle 4.287488207733047e-15 5.758861653036737e-17
lhumerus -36.50298729340953 -16.426420997817758 96.5321291943755
lradius 115.79605353743955
lwrist 28.309086465336716
lhand -29.324944031415082 3.8881569536487888
lfingers 7.125019999999998
lthumb -2.659010592631361 33.488469226049105
rclavicle 4.287527000420747e-15 5.761646216707066e-17
rhumerus -56.14809951734871 10.478899337730102 -97.55107944339235
rradius 103.98971119757724
rwrist -9.380654130261066
rhand -20.41923206501097 36.37296594455836
rfingers 7.125019999999998
rthumb 6.022270847702363 6.209793385559395
39
root 0.31815646324798086 18.253124667913212 13.43789397086206 3.1266645902505363 -6.074965985378585 1.194099461016989
lfemur 1.9574859203478852 0.0024001925862478513 -24.14004927847269
ltibia 74.9101574929601
lfoot 8.566629178261708 -13.528711192299063
ltoes 0.5915870407553445
rfemur -29.916210549436883 1.3420780614099148 24.98727144190911
rtibia 34.098718696190446
rfoot -3.5716281176501052 -3.990905327619626
rtoes 0.16760602950674675
lowerback 12.687392404866584 -0.863195560051466 -1.7953401616501907
upperback -0.3057970245284806 -0.899050715549258 1.624915749557272
thorax -7.921729584020551 -0.17925446975836656 2.8765088544484456
lowerneck -20.3303284141253 -2.9140116432400167 -1.8092899180564352
upperneck 9.941907884938752 -4.384433806331954 2.648238664441731
head 6.546090646184528 -1.8716551473911083 0.8123951143835916
lclavicle 4.287488207735191e-15 5.758861653190586e-17
lhumerus -37.77092038215018 -15.590097206686323 96.54257859575984
lradius 115.7841874070605
lwrist 28.14229969142287
lhand -29.204128195414707 3.6294648676710475
lfingers 7.125019999999998
lthumb -2.4905466867812818 33.51081173665385
rclavicle 4.287527000334603e-15 5.761646210523561e-17
rhumerus -55.199252847527504 10.071227090976926 -97.40267402666514
rradius 104.11320686119339
rwrist -9.340737361350628
rhand -20.33056836274209 36.4328939660226
rfingers 7.125019999999998
rthumb 6.195390762674035 6.392281230909699
40
root 0.32182155969431014 18.01932848437607 14.274040603608446 2.0049657190897645 -7.022453140768163 0.9237893251005356
lfemur -1.8677759560109273 1.7644141767240114 -21.86773746772042
ltibia 79.19353740267061
lfoot 6.675402093834887 -12.072631283774752
ltoes 1.2894253153865867
rfemur -28.731719151325976 2.016585232740041 25.401831370114014
rtibia 37.198903683991276
rfoot -3.9394332715823337 -4.312128693694382
rtoes 0.4883271943598646
lowerback 13.318261854955123 -0.47294712909942427 -1.352955322157616
upperback -0.00598394406630498 -0.19363094571913853 1.7020419487977567
thorax -8.02765544000233 0.06367512793629293 2.67859118224944
lowerneck -20.514905852445217 -3.022968939502657 -1.7403923057283068
upperneck 9.822841954511476 -4.50516904555291 2.599553409792066
head 6.466200244058438 -1.902789453477265 0.7862125831222291
lclavicle 4.287488207737667e-15 5.758861653368324e-17
lhumerus -39.6746574307072 -14.641437121072663 96.65442627151772
lradius 115.67954097978739
lwrist 28.248086077580083
lhand -28.750608321030523 3.409275103526764
lfingers 7.125019999999998
lthumb -2.058963756729412 33.290770838885685
rclavicle 4.287527000339353e-15 5.761646210864534e-17
rhumerus -54.18123217197206 9.810529708048538 -97.361516559197
rradius 104.3742602026457
rwrist -9.402222582222441
rhand -20.25546573832337 36.58824850035509
rfingers 7.125019999999998
rthumb 6.23890526401117 6.600794665463461
41
root 0.294256402485746 17.756317837930748 14.156702118765363 1.2910555843411604 -7.539786756583606 -0.05802150829102093
lfemur -5.484463074241459 3.8393577709663975 -18.482684687464108
ltibia 82.90829031411808
lfoot 5.017868311573522 -10.613171090176694
ltoes 1.1294299497648144
rfemur -27.240850310727573 3.032319283845909 26.720160818959602
rtibia 40.07139213855973
rfoot -4.656004531238374 -4.285915182646392
rtoes 1.1045276964802575
lowerback 13.90776028438853 -0.11104267960508052 -0.841202242712058
upperback 0.20886263171093822 0.44195698655363636 1.8918085441998345
thorax -8.093817982536823 0.3180497770664148 2.4223746606037055
lowerneck -20.639361558166094 -3.164474096992347 -1.656796741196076
upperneck 9.813687301671113 -4.63827879340671 2.5859277531266267
head 6.4324489103404545 -1.9329978446999494 0.7525459415441377
lclavicle 4.287488207731266e-15 5.75886165290891e-17
lhumerus -41.868397629861974 -13.617141819707472 96.81366403770694
lradius 115.24775719156801
lwrist 28.38457905378544
lhand -28.755325151823754 3.185970946867964
lfingers 7.125019999999998
lthumb -2.1649290407043695 33.1046787159144
rclavicle 4.287527000382449e-15 5.761646213957932e-17
rhumerus -52.5411976808777 9.886882919919316 -97.38930811103346
rradius 104.7077292816846
rwrist -9.55013528409652
rhand -20.340981755869667 36.5649246073212
rfingers 7.125019999999998
rthumb 6.052080141631883 6.436837262083077
42
root 0.25719955207277595 17.543288663901624 15.120020852508187 1.291601669406139 -7.772946286933189 -1.401707403865149
lfemur -9.340866179138976 5.628911129661789 -15.433797807365803
ltibia 86.21330665115376
lfoot 4.915871634208214 -9.486403548458295
ltoes 0.2880479299899479
rfemur -25.28467461621515 4.5328524451458545 28.480573158267955
rtibia 42.27426226181035
rfoot -6.074119693358361 -4.128673738386648
rtoes 1.3185450712976081
lowerback 14.399067983225489 0.1468555771006691 -0.11355642520998499
upperback 0.29985114104296284 1.0147973626086344 2.1844532155982916
thorax -8.201073053840389 0.5194489627043314 2.0678795559087533
lowerneck -20.59208402426691 -3.2750969887117205 -1.5802714605958998
upperneck 9.656656916413198 -4.801575056523723 2.612609773054076
head 6.395459130442618 -1.958135417312802 0.7237181541907761
lclavicle 4.287488207731266e-15 5.75886165290891e-17
lhumerus -44.456973617182484 -12.792446955711746 96.93945124844267
lradius 114.4663261093046
lwrist 28.50114987222318
lhand -28.790333690832295 3.001765637345061
lfingers 7.125019999999998
lthumb -2.28740412793374 32.73860296919489
rclavicle 4.287527000382449e-15 5.76164621395793e-17
rhumerus -50.832219579847184 10.114103422270354 -97.50660876676544
rradius 105.00679804164164
rwrist -9.59167774855133
rhand -20.342472083011504 36.53758067290493
rfingers 7.125019999999998
rthumb 6.074035847365065 6.374365660201958
